PathFileType	4	(X/Y/Z)	Run_200 02
DataRate	CameraRate	NumFrames	NumMarkers	Units	OrigDataRate	OrigDataStartFrame	OrigNumFrames
120	120	7	41	mm	120	72	125
Frame#	Time	LASI			RASI			LPSI			RPSI			RTH1			RTH3			LTH1			LTH2			LTH3			RTB1			RTB2			RTB3			LTB1			LTB2			LTB3			RCAL			RTOE			RMT5			LCAL			LTOE			LMT5			LACR			RACR			CLAV			C7			RUA1			RUA2			RUA3			RLEL			RMEL			LUA1			LUA2			LUA3			LLEL			LMEL			RFAsuperior			RFAradius			RFAulna			LFAsuperior			LFAradius			LFAulna			
		X1	Y1	Z1	X2	Y2	Z2	X3	Y3	Z3	X4	Y4	Z4	X5	Y5	Z5	X6	Y6	Z6	X7	Y7	Z7	X8	Y8	Z8	X9	Y9	Z9	X10	Y10	Z10	X11	Y11	Z11	X12	Y12	Z12	X13	Y13	Z13	X14	Y14	Z14	X15	Y15	Z15	X16	Y16	Z16	X17	Y17	Z17	X18	Y18	Z18	X19	Y19	Z19	X20	Y20	Z20	X21	Y21	Z21	X22	Y22	Z22	X23	Y23	Z23	X24	Y24	Z24	X25	Y25	Z25	X26	Y26	Z26	X27	Y27	Z27	X28	Y28	Z28	X29	Y29	Z29	X30	Y30	Z30	X31	Y31	Z31	X32	Y32	Z32	X33	Y33	Z33	X34	Y34	Z34	X35	Y35	Z35	X36	Y36	Z36	X37	Y37	Z37	X38	Y38	Z38	X39	Y39	Z39	X40	Y40	Z40	X41	Y41	Z41	

72	1.366667	878.572851	993.907337	-388.999902	891.2169259999999	973.2461499999999	-155.276241	720.316287	1016.806342	-310.127715	719.408355	1008.238066	-215.132096	856.458311	809.7393070000001	-93.408584	954.432148	574.846956	-117.158127	833.016792	800.364705	-442.81912	891.473537	693.036853	-419.19244	826.317194	578.475989	-384.35159	914.007166	378.254087	-171.618989	840.82015	381.49033	-113.138198	806.623023	321.802829	-173.311737	827.901075	358.0298	-288.601564	766.837946	296.101775	-357.861817	749.067688	208.048272	-279.677445	607.900737	309.440935	-185.934599	728.182123	135.911874	-179.812615	698.067949	155.60196	-89.46536	584.700863	118.427881	-271.748254	786.2018870000001	74.383246	-242.70537	771.7137719999999	59.337434	-332.532012	886.007717	1431.987491	-463.591892	840.375238	1426.660336	-72.228145	931.497421	1424.485928	-239.82692	817.285428	1491.101585	-285.908937	748.882009	1312.163686	-32.761785	681.958261	1324.018408	-66.300459	686.681283	1249.444339	-11.378967	636.432178	1197.15802	2.53412	610.561243	1184.571274	-74.488632	827.7968980000001	1295.938268	-516.97492	758.521204	1251.561514	-514.640904	823.553368	1206.507932	-526.668122	778.7680350000001	1133.431314	-549.048758	728.890477	1133.899067	-477.780557	701.749506	1085.882047	-3.846268	756.826427	990.295527	-58.888374	705.692645	961.251843	-19.523679	892.790316	1093.403615	-501.892672	972.6264200000001	1108.798192	-404.048298	978.384753	1049.861397	-441.687041	
73	1.375	880.347742	997.433354	-389.136411	892.507429	979.3347680000001	-155.52772	722.631699	1022.263146	-311.054704	721.419034	1014.558857	-215.189167	859.237422	816.663225	-92.38165499999999	958.791251	582.625555	-117.943174	831.173806	803.788517	-441.261451	885.412221	694.91371	-416.509978	815.083852	582.467328	-382.370761	924.480071	382.112689	-173.105064	851.359917	381.83325	-114.227847	819.549443	320.199956	-174.257203	812.621054	360.822593	-287.829366	750.584239	299.72647	-356.983712	732.083668	211.762989	-279.120358	621.7067970000001	297.045364	-186.07312	752.637409	131.194347	-181.35559	721.9861110000001	148.87712	-90.556442	568.954688	121.498449	-272.910875	769.793049	74.65595	-243.083606	755.0967470000001	59.460246	-332.727141	887.700751	1439.022667	-462.376367	836.716289	1433.74152	-72.27113199999999	930.502333	1431.08815	-237.863517	816.792607	1497.008774	-285.648628	743.2682160000001	1321.450827	-32.883625	676.986095	1334.469658	-67.10486400000001	679.820094	1259.896786	-12.013674	628.251937	1208.775077	1.482868	602.97223	1196.632933	-75.811859	831.583586	1302.25525	-516.439763	763.287265	1256.739558	-515.579042	829.233999	1212.677708	-526.0849940000001	785.5173160000001	1138.986114	-548.884817	734.438524	1139.074891	-478.169606	692.334806	1097.258035	-4.098869	746.997487	1000.936879	-58.354374	695.180262	972.280032	-19.705548	899.813662	1102.588923	-499.663661	977.70536	1120.992767	-400.99926	985.752784	1061.854255	-438.006472	
74	1.383333	882.4800300000001	1001.150896	-388.985188	893.928003	985.935112	-155.551437	725.188735	1028.004865	-311.951828	724.211085	1020.913357	-215.146699	862.925245	823.871348	-91.585708	962.569973	590.460907	-118.812958	829.738832	807.547946	-439.596436	879.220037	697.330637	-413.745129	803.965043	587.359031	-380.407406	934.482457	386.244213	-175.020854	861.618624	381.820908	-115.558617	832.587217	318.503214	-175.892442	797.506292	364.532958	-287.072644	734.476539	304.264675	-356.1295	715.466082	216.3052	-278.523966	636.240646	284.164801	-186.289631	777.509374	126.874514	-183.537092	746.425259	142.209592	-92.136819	553.842836	125.711157	-274.105981	753.611566	75.05369399999999	-243.375005	738.629496	59.667386	-332.844178	889.472408	1446.367636	-461.096506	833.263048	1441.412462	-72.42046000000001	929.449659	1438.046726	-235.889733	816.256925	1503.233809	-285.378752	738.080727	1331.258856	-33.06223	672.443622	1345.475579	-67.92925	673.515708	1270.809742	-12.744753	620.649661	1220.756005	0.221516	595.864196	1209.215413	-77.434372	835.252924	1309.081045	-515.964891	767.811416	1262.601949	-516.56802	834.576087	1219.483568	-525.671298	791.858584	1145.263858	-548.950683	739.511995	1144.871776	-478.779874	683.623282	1109.01306	-4.521902	738.208566	1012.172178	-57.973298	685.645514	983.722372	-20.297994	906.208743	1112.201241	-497.433508	982.0121329999999	1133.35245	-398.07776	992.202042	1073.964201	-434.346509	
75	1.391667	884.778102	1005.101927	-388.661731	895.4195580000001	992.995603	-155.295991	727.757381	1033.997724	-312.532604	727.117442	1027.57305	-214.994981	867.097355	831.378045	-90.82901699999999	965.677925	598.0877379999999	-119.901577	828.399931	811.577226	-437.81082	873.170888	700.441313	-411.016568	793.206709	593.137339	-378.66309	943.972506	390.316421	-177.201921	871.686113	381.451546	-117.03783	845.85739	316.781427	-177.87664	782.75515	369.231086	-286.474232	718.761285	309.790505	-355.430721	699.680852	221.63263	-277.90608	651.593246	270.954911	-186.585879	802.685923	123.054981	-186.24017	771.303367	135.68756	-94.221403	539.555313	131.164704	-275.247745	737.720614	75.564289	-243.557564	722.386612	59.924706	-332.784922	891.334709	1453.888083	-459.799042	830.075034	1449.438492	-72.64803000000001	928.3345	1445.204072	-233.981637	815.699305	1509.668407	-285.148041	733.305709	1341.405587	-33.293576	668.359897	1356.851683	-68.83796700000001	667.759374	1281.972057	-13.53729	613.637298	1232.902423	-1.218176	589.358977	1222.081988	-79.314787	838.92629	1316.260815	-515.577671	772.08449	1269.115511	-517.560247	839.470501	1226.808294	-525.453038	797.774314	1152.102921	-549.259138	744.210164	1151.148579	-479.627822	675.637917	1120.930817	-5.103751	730.3927190000001	1023.698551	-57.769622	677.062674	995.361772	-21.191086	911.950365	1122.027764	-495.379337	985.618423	1145.662442	-395.315097	997.757117	1085.970079	-430.625233	
76	1.4	887.158639	1009.320039	-388.126366	896.996056	1000.395561	-154.79427	730.23616	1040.274878	-312.703037	729.5794100000001	1034.777817	-214.815624	870.911627	839.241358	-89.83869199999999	968.037571	605.374312	-121.141643	826.964348	815.852388	-435.920066	867.482724	704.266356	-408.408398	783.006996	599.677061	-377.315428	952.926346	394.226679	-179.392462	881.639481	380.8202	-118.507328	859.304115	315.116482	-179.813898	768.5006540000001	374.901243	-286.207425	703.605379	316.303848	-355.027248	684.996275	227.657663	-277.41141	667.817725	257.550833	-186.984657	828.083044	119.732635	-189.276181	796.605727	129.438575	-96.730485	526.1910329999999	137.827621	-276.279003	722.161164	76.124994	-243.630939	706.425947	60.190804	-332.499547	893.239028	1461.494546	-458.532611	827.176291	1457.616785	-72.920306	927.204207	1452.452826	-232.173167	815.153987	1516.225882	-284.977616	728.928614	1351.688268	-33.598175	664.7452520000001	1368.37586	-69.853613	662.524937	1293.179489	-14.400374	607.206428	1245.022447	-2.80704	583.591855	1234.908666	-81.39070700000001	842.630675	1323.673477	-515.28658	776.1288060000001	1276.184354	-518.520162	843.909709	1234.490534	-525.405271	803.257283	1159.330603	-549.7686169999999	748.607885	1157.795863	-480.699841	668.397098	1132.844478	-5.860623	723.4837230000001	1035.289972	-57.7424	669.409304	1007.011957	-22.272428	917.051211	1131.901573	-493.640604	988.599303	1157.734546	-392.734615	1002.49215	1097.764816	-426.89823	
77	1.408333	889.649047	1013.790224	-387.253191	898.691508	1007.971934	-154.109393	732.686433	1046.830184	-312.553624	731.452334	1042.542521	-214.707938	873.675689	847.43071	-88.489425	969.623024	612.2916739999999	-122.364734	825.4105949999999	820.435955	-434.023437	862.2024699999999	708.710373	-405.996259	773.486818	606.7844689999999	-376.481139	961.3239129999999	398.034464	-181.36282	891.491907	380.065853	-119.79159	872.7715459999999	313.535316	-181.475364	754.857367	381.40805	-286.408048	689.10696	323.69514	-355.021865	671.4369359999999	234.240835	-277.355589	684.916564	244.059273	-187.521971	853.668724	116.896245	-192.422772	822.3299469999999	123.619305	-99.50338499999999	513.790785	145.562091	-277.198887	706.944255	76.631854	-243.638069	690.7814959999999	60.444154	-332.059776	895.109814	1469.10286	-457.305591	824.562225	1465.794456	-73.216572	926.144014	1459.724211	-230.455451	814.64572	1522.813957	-284.85331	724.946714	1361.907535	-33.991048	661.6003020000001	1379.800291	-70.976851	657.767077	1304.258441	-15.373775	601.337978	1256.946168	-4.523457	578.579156	1247.375289	-83.58271999999999	846.310084	1331.211157	-515.077364	779.978867	1283.639582	-519.440174	847.970811	1242.346508	-525.491187	808.313761	1166.778401	-550.39421	752.684796	1164.724788	-481.934893	661.896106	1144.614464	-6.800348	717.404433	1046.789524	-57.881181	662.65008	1018.518317	-23.460369	921.57493	1141.695998	-492.222426	991.0247010000001	1169.41582	-390.336794	1006.522608	1109.304314	-423.334908	
78	1.416667	892.294348	1018.456848	-385.9751	900.522098	1015.562676	-153.286693	735.260402	1053.548391	-312.244437	733.01325	1050.636256	-214.685423	875.337639	855.767477	-86.90467099999999	970.465144	618.8335049999999	-123.458791	823.861889	825.440435	-432.28797	857.256444	713.638344	-403.864131	764.682678	614.266038	-376.165209	969.144524	401.7945	-183.010321	901.167568	379.283683	-120.786916	886.11915	312.006921	-182.864669	741.980417	388.530573	-287.110384	675.341684	331.774578	-355.454443	658.907314	241.207868	-278.107018	702.844175	230.567964	-188.232917	879.449684	114.646529	-195.483153	848.419617	118.396291	-102.38184	502.388967	154.158209	-278.079669	692.048911	76.991108	-243.66098	675.4613859999999	60.699862	-331.663941	896.880943	1476.61144	-456.082959	822.2171059999999	1473.856215	-73.5308	925.221282	1466.949157	-228.81099	814.180296	1529.328985	-284.739521	721.363166	1371.897292	-34.450984	658.9145590000001	1390.878506	-72.206052	653.429531	1315.074702	-16.491799	596.009993	1268.537502	-6.347543	574.221921	1259.267333	-85.821573	849.871178	1338.767147	-514.920178	783.657676	1291.271809	-520.3439519999999	851.761545	1250.201655	-525.682994	812.969438	1174.299286	-551.060654	756.3573689999999	1171.845746	-483.24663	656.109932	1156.115625	-7.899694	712.055596	1058.060021	-58.20151	656.731932	1029.7715	-24.70705	925.608958	1151.303087	-491.032953	992.962792	1180.595755	-388.10374	1009.97756	1120.521738	-420.101267	
